HIERARCHY
ROOT Hips
{
  OFFSET 35.7769 98.643 2.49324
  CHANNELS 6 Xposition Yposition Zposition Zrotation Xrotation Yrotation
  JOINT spine
  {
    OFFSET 0 8.30104 0.477351
    CHANNELS 3 Zrotation Xrotation Yrotation
    JOINT spine1
    {
      OFFSET 0 10.4565 0
      CHANNELS 3 Zrotation Xrotation Yrotation
      JOINT spine2
      {
        OFFSET 0 10.0192 0
        CHANNELS 3 Zrotation Xrotation Yrotation
        JOINT Neck
        {
          OFFSET 0 25.7235 1.22641
          CHANNELS 3 Zrotation Xrotation Yrotation
          JOINT Head
          {
            OFFSET 0 7.77175 0
            CHANNELS 3 Zrotation Xrotation Yrotation
            End Site
            {
              OFFSET 0 18.812 -6.20394
            }
          }
        }
        JOINT RightShoulder
        {
          OFFSET -4.2188 10.82 -0.587439
          CHANNELS 3 Zrotation Xrotation Yrotation
          JOINT RightArm
          {
            OFFSET 0 14.1914 0
            CHANNELS 3 Zrotation Xrotation Yrotation
            JOINT RightArmRoll
            {
              OFFSET 0 7.16408 0
              CHANNELS 3 Zrotation Xrotation Yrotation
              JOINT RightForeArm
              {
                OFFSET 0 20.8665 0
                CHANNELS 3 Zrotation Xrotation Yrotation
                JOINT RightForeArmRoll
                {
                  OFFSET 0 8.03921 0
                  CHANNELS 3 Zrotation Xrotation Yrotation
                  JOINT RightHand
                  {
                    OFFSET 0 16.133 0
                    CHANNELS 3 Zrotation Xrotation Yrotation
                    End Site
                    {
                      OFFSET 0 0 0
                    }
                  }
                }
              }
            }
          }
        }
        JOINT LeftShoulder
        {
          OFFSET 4.2188 10.82 -0.587439
          CHANNELS 3 Zrotation Xrotation Yrotation
          JOINT LeftArm
          {
            OFFSET 0 14.1914 0
            CHANNELS 3 Zrotation Xrotation Yrotation
            JOINT LeftArmRoll
            {
              OFFSET 0 7.16408 0
              CHANNELS 3 Zrotation Xrotation Yrotation
              JOINT LeftForeArm
              {
                OFFSET 0 20.8665 0
                CHANNELS 3 Zrotation Xrotation Yrotation
                JOINT LeftForeArmRoll
                {
                  OFFSET 0 8.03921 0
                  CHANNELS 3 Zrotation Xrotation Yrotation
                  JOINT LeftHand
                  {
                    OFFSET 0 16.133 0
                    CHANNELS 3 Zrotation Xrotation Yrotation
                    End Site
                    {
                      OFFSET 0 0 0
                    }
                  }
                }
              }
            }
          }
        }
      }
    }
  }
  JOINT RightUpLeg
  {
    OFFSET -7.35773 -1.34921 -1.13182
    CHANNELS 3 Zrotation Xrotation Yrotation
    JOINT RightUpLegRoll
    {
      OFFSET 0 18.9168 0
      CHANNELS 3 Zrotation Xrotation Yrotation
      JOINT RightLeg
      {
        OFFSET 0 -23.4256 0
        CHANNELS 3 Zrotation Xrotation Yrotation
        JOINT RightLegRoll
        {
          OFFSET 0 23.5023 0
          CHANNELS 3 Zrotation Xrotation Yrotation
          JOINT RightFoot
          {
            OFFSET 0 19.5617 0
            CHANNELS 3 Zrotation Xrotation Yrotation
            JOINT RightToeBase
            {
              OFFSET 0 16.3526 0
              CHANNELS 3 Zrotation Xrotation Yrotation
              End Site
              {
                OFFSET 0.00693125 7.91944 -0.912836
              }
            }
          }
        }
      }
    }
  }
  JOINT LeftUpLeg
  {
    OFFSET 7.35773 -1.34921 -1.13182
    CHANNELS 3 Zrotation Xrotation Yrotation
    JOINT LeftUpLegRoll
    {
      OFFSET 0 18.9169 0
      CHANNELS 3 Zrotation Xrotation Yrotation
      JOINT LeftLeg
      {
        OFFSET 0 23.4255 0
        CHANNELS 3 Zrotation Xrotation Yrotation
        JOINT LeftLegRoll
        {
          OFFSET 0 23.7195 0
          CHANNELS 3 Zrotation Xrotation Yrotation
          JOINT LeftFoot
          {
            OFFSET 0 19.3444 0
            CHANNELS 3 Zrotation Xrotation Yrotation
            JOINT LeftToeBase
            {
              OFFSET 0 16.3526 0
              CHANNELS 3 Zrotation Xrotation Yrotation
              End Site
              {
                OFFSET -0.0310629 7.91943 -0.912837
              }
            }
          }
        }
      }
    }
  }
}
MOTION
Frames: 12
Frame Time: 0.00208333
38.206 98.5555 4.78512 1.16135 -3.63157 2.96745 0.154208 -1.05131 0.207462 0.309313 1.90071 0.402812 0.305203 3.54575 0.397862 -3.96563 20.5626 -1.49111 2.6533 -7.21443 -2.34733 73.1957 -1.06399 -2.16943 96.4518 14.0933 30.0806 -5.84874e-008 -9.05946e-007 -1.62329e-006 7.4112 0.0576654 0.0970095 -9.41674e-006 -3.37044e-006 -3.03892 8.02923 -4.95141 0.69769 -66.9006 3.31494 -0.738399 -100.735 4.55383 -17.2801 -2.71693e-006 -1.81963e-006 2.99747e-006 -12.248 1.68916 0.514423 5.50844e-006 1.99926e-006 3 -8.02889 -4.95147 -0.69769 178.769 -3.20139 0.319212 180 7.01554e-015 178.955 175.324 4.73609 179.805 -2.44103e-006 -4.48678e-006 0.0618874 -18.4489 67.8567 19.4378 8.13798 25.2319 -3.48791 -178.349 -1.30487 2.23623 4.54188e-006 -4.6773e-006 -1.16845 -3.1744 -11.825 0.465915 -1.84517e-006 -2.56875e-006 -0.166604 19.026 68.4692 -19.9091 -8.13544 25.2354 3.47712 
38.1943 98.5493 4.76717 1.16184 -3.63636 2.9842 0.153762 -1.04926 0.206184 0.307611 1.90482 0.399911 0.303502 3.54986 0.39499 -3.93396 20.5699 -1.50235 2.62767 -7.22521 -2.35299 73.1916 -1.0695 -2.17153 96.4884 14.0396 30.0884 -5.84874e-008 -9.05946e-007 -1.62329e-006 7.41692 0.0576739 0.0995198 -9.41674e-006 -3.37044e-006 -3.03892 8.02923 -4.95141 0.69769 -66.8847 3.31598 -0.741361 -100.757 4.54795 -17.2889 -2.71693e-006 -1.81963e-006 2.99747e-006 -12.2383 1.6796 0.513781 5.50844e-006 1.99926e-006 3 -8.02889 -4.95147 -0.69769 178.774 -3.19502 0.319638 180 7.01554e-015 178.955 175.326 4.76429 179.805 -2.44103e-006 -4.48678e-006 0.0617777 -18.4403 67.8462 19.4289 8.13788 25.2302 -3.4866 -178.347 -1.28306 2.23152 4.54188e-006 -4.6773e-006 -1.16841 -3.1731 -11.8728 0.465413 -1.84517e-006 -2.56875e-006 -0.167017 19.0268 68.4701 -19.9099 -8.13509 25.2299 3.46728 
38.1957 98.5416 4.77671 1.16265 -3.64166 3.00149 0.153251 -1.04713 0.204839 0.305724 1.90906 0.396851 0.301617 3.5541 0.391962 -3.90118 20.5773 -1.51396 2.60109 -7.23574 -2.35884 73.188 -1.07495 -2.17365 96.5245 13.9845 30.0953 -5.84874e-008 -9.05946e-007 -1.62329e-006 7.42427 0.0576866 0.10202 -9.41674e-006 -3.37044e-006 -3.03892 8.02923 -4.95141 0.69769 -66.8682 3.31701 -0.744381 -100.781 4.54137 -17.2973 -2.71693e-006 -1.81963e-006 2.99747e-006 -12.2291 1.67017 0.513123 5.50844e-006 1.99926e-006 3 -8.02889 -4.95147 -0.69769 178.778 -3.19043 0.319681 180 7.01554e-015 178.955 175.328 4.79084 179.805 -2.44103e-006 -4.48678e-006 0.0616146 -18.4327 67.8369 19.4211 8.13771 25.2276 -3.48466 -178.346 -1.26366 2.22768 4.54188e-006 -4.6773e-006 -1.16835 -3.17132 -11.9177 0.464986 -1.84517e-006 -2.56875e-006 -0.167377 19.0278 68.4712 -19.911 -8.13432 25.2182 3.45764 
38.1906 98.5384 4.79172 1.16368 -3.64733 3.01918 0.152694 -1.04496 0.203449 0.303708 1.9134 0.39368 0.299603 3.55844 0.388826 -3.86761 20.5847 -1.52583 2.57386 -7.24608 -2.36482 73.185 -1.08036 -2.1758 96.5602 13.9283 30.1016 -5.84874e-008 -9.05946e-007 -1.62329e-006 7.43275 0.0577023 0.104514 -9.41674e-006 -3.37044e-006 -3.03892 8.02923 -4.95141 0.69769 -66.8515 3.31802 -0.747442 -100.804 4.53428 -17.3054 -2.71693e-006 -1.81963e-006 2.99747e-006 -12.2203 1.66084 0.512453 5.50844e-006 1.99926e-006 3 -8.02889 -4.95147 -0.69769 178.782 -3.18707 0.319458 180 7.01554e-015 178.955 175.33 4.81621 179.804 -2.44103e-006 -4.48678e-006 0.061414 -18.4257 67.8284 19.414 8.13752 25.2245 -3.48227 -178.345 -1.24593 2.22445 4.54188e-006 -4.6773e-006 -1.16827 -3.16923 -11.9606 0.464613 -1.84517e-006 -2.56875e-006 -0.167699 19.029 68.4726 -19.9123 -8.13327 25.2022 3.44814 
38.1828 98.5486 4.79055 1.16483 -3.6532 3.03709 0.152111 -1.04277 0.202033 0.301618 1.91779 0.390446 0.297516 3.56283 0.385627 -3.8336 20.5921 -1.53785 2.54625 -7.25633 -2.37087 73.1821 -1.08574 -2.17797 96.5957 13.8715 30.1076 -5.84874e-008 -9.05946e-007 -1.62329e-006 7.44189 0.0577198 0.107003 -9.41674e-006 -3.37044e-006 -3.03892 8.02923 -4.95141 0.69769 -66.8346 3.31902 -0.750526 -100.827 4.52692 -17.3133 -2.71693e-006 -1.81963e-006 2.99747e-006 -12.2116 1.65157 0.511777 5.50844e-006 1.99926e-006 3 -8.02889 -4.95147 -0.69769 178.787 -3.18443 0.319082 180 7.01554e-015 178.955 175.332 4.84094 179.804 -2.44103e-006 -4.48678e-006 0.061192 -18.4192 67.8204 19.4073 8.1373 25.221 -3.47962 -178.344 -1.22916 2.22157 4.54188e-006 -4.6773e-006 -1.16818 -3.16694 -12.0024 0.464271 -1.84517e-006 -2.56875e-006 -0.168 19.0303 68.474 -19.9136 -8.13205 25.1836 3.43872 
38.1837 98.5409 4.79045 1.16601 -3.65912 3.05505 0.151522 -1.04056 0.20061 0.29951 1.92219 0.387196 0.29541 3.56723 0.382413 -3.79947 20.5994 -1.5499 2.51854 -7.26654 -2.37694 73.1794 -1.09112 -2.18013 96.6312 13.8146 30.1136 -5.84874e-008 -9.05946e-007 -1.62329e-006 7.45119 0.0577376 0.109492 -9.41674e-006 -3.37044e-006 -3.03892 8.02923 -4.95141 0.69769 -66.8176 3.32002 -0.753616 -100.851 4.51948 -17.3212 -2.71693e-006 -1.81963e-006 2.99747e-006 -12.2031 1.6423 0.511099 5.50844e-006 1.99926e-006 3 -8.02889 -4.95147 -0.69769 178.791 -3.18196 0.318667 180 7.01554e-015 178.955 175.335 4.8655 179.804 -2.44103e-006 -4.48678e-006 0.0609647 -18.4128 67.8125 19.4007 8.13707 25.2174 -3.47691 -178.344 -1.21263 2.21878 4.54188e-006 -4.6773e-006 -1.1681 -3.16461 -12.0439 0.463936 -1.84517e-006 -2.56875e-006 -0.168296 19.0316 68.4755 -19.915 -8.1308 25.1644 3.42932 
38.183 98.5384 4.79615 1.16714 -3.66494 3.0729 0.150946 -1.03837 0.1992 0.297439 1.92657 0.383977 0.293342 3.57161 0.37923 -3.76556 20.6068 -1.56189 2.49102 -7.27681 -2.38298 73.1765 -1.09651 -2.18229 96.6668 13.7579 30.1197 -5.84874e-008 -9.05946e-007 -1.62329e-006 7.46016 0.0577546 0.111983 -9.41674e-006 -3.37044e-006 -3.03892 8.02923 -4.95141 0.69769 -66.8007 3.32102 -0.756695 -100.875 4.51219 -17.3291 -2.71693e-006 -1.81963e-006 2.99747e-006 -12.1944 1.63302 0.510424 5.50844e-006 1.99926e-006 3 -8.02889 -4.95147 -0.69769 178.795 -3.17914 0.318329 180 7.01554e-015 178.955 175.337 4.8904 179.803 -2.44103e-006 -4.48678e-006 0.0607481 -18.4062 67.8044 19.3939 8.13686 25.2139 -3.47433 -178.343 -1.19562 2.21581 4.54188e-006 -4.6773e-006 -1.16801 -3.16237 -12.0859 0.463586 -1.84517e-006 -2.56875e-006 -0.168602 19.0328 68.4769 -19.9164 -8.12964 25.1464 3.41989 
38.1952 98.5368 4.82607 1.16812 -3.6705 3.09048 0.150402 -1.03621 0.197823 0.295462 1.93088 0.380838 0.291367 3.57591 0.376125 -3.7322 20.6142 -1.57369 2.46396 -7.2872 -2.38893 73.1733 -1.10193 -2.18444 96.7027 13.7021 30.1263 -5.84874e-008 -9.05946e-007 -1.62329e-006 7.46832 0.0577695 0.114478 -9.41674e-006 -3.37044e-006 -3.03892 8.02923 -4.95141 0.69769 -66.7841 3.32203 -0.759744 -100.898 4.50525 -17.3373 -2.71693e-006 -1.81963e-006 2.99747e-006 -12.1854 1.62366 0.509758 5.50844e-006 1.99926e-006 3 -8.02889 -4.95147 -0.69769 178.799 -3.17543 0.318182 180 7.01554e-015 178.955 175.339 4.91612 179.803 -2.44103e-006 -4.48678e-006 0.0605582 -18.3991 67.7957 19.3866 8.13667 25.2109 -3.47207 -178.342 -1.17741 2.21241 4.54188e-006 -4.6773e-006 -1.16794 -3.16037 -12.1294 0.463198 -1.84517e-006 -2.56875e-006 -0.168935 19.0339 68.4782 -19.9176 -8.12869 25.1316 3.41036 
38.184 98.5211 4.82308 1.16886 -3.67565 3.10762 0.149911 -1.03411 0.196498 0.293633 1.93508 0.377826 0.28954 3.58012 0.373144 -3.69973 20.6216 -1.58519 2.43766 -7.29781 -2.39472 73.1695 -1.1074 -2.18656 96.739 13.6475 30.1337 -5.84874e-008 -9.05946e-007 -1.62329e-006 7.47518 0.057781 0.116981 -9.41674e-006 -3.37044e-006 -3.03892 8.02923 -4.95141 0.69769 -66.7678 3.32306 -0.762747 -100.921 4.49888 -17.3458 -2.71693e-006 -1.81963e-006 2.99747e-006 -12.1761 1.61419 0.509104 5.50844e-006 1.99926e-006 3 -8.02889 -4.95147 -0.69769 178.804 -3.1703 0.31834 180 7.01554e-015 178.955 175.341 4.94316 179.803 -2.44103e-006 -4.48678e-006 0.0604111 -18.3912 67.786 19.3785 8.13653 25.2086 -3.47032 -178.341 -1.15729 2.20831 4.54188e-006 -4.6773e-006 -1.16788 -3.15874 -12.1752 0.46275 -1.84517e-006 -2.56875e-006 -0.169311 19.0349 68.4793 -19.9186 -8.12808 25.1217 3.40067 
38.1797 98.5138 4.82404 1.16925 -3.68023 3.12414 0.149492 -1.03208 0.195246 0.292008 1.93914 0.374988 0.287916 3.58417 0.370334 -3.66849 20.6289 -1.5963 2.41238 -7.3087 -2.40031 73.1651 -1.11294 -2.18864 96.776 13.5945 30.142 -5.84874e-008 -9.05946e-007 -1.62329e-006 7.48025 0.0577877 0.119496 -9.41674e-006 -3.37044e-006 -3.03892 8.02923 -4.95141 0.69769 -66.752 3.32412 -0.765685 -100.943 4.49329 -17.3547 -2.71693e-006 -1.81963e-006 2.99747e-006 -12.1663 1.60458 0.508469 5.50844e-006 1.99926e-006 3 -8.02889 -4.95147 -0.69769 178.808 -3.16322 0.318918 180 7.01554e-015 178.955 175.342 4.97202 179.802 -2.44103e-006 -4.48678e-006 0.0603228 -18.3822 67.775 19.3693 8.13644 25.2072 -3.46926 -178.339 -1.13452 2.20326 4.54188e-006 -4.6773e-006 -1.16785 -3.15763 -12.2241 0.462219 -1.84517e-006 -2.56875e-006 -0.169744 19.0356 68.4801 -19.9194 -8.12792 25.1188 3.39077 
38.1856 98.5055 4.8337 1.16922 -3.68408 3.1399 0.149165 -1.03014 0.194086 0.290644 1.943 0.372372 0.286552 3.58804 0.367742 -3.6388 20.6363 -1.60688 2.38842 -7.31995 -2.40563 73.1598 -1.11857 -2.19068 96.8138 13.5437 30.1516 -5.84874e-008 -9.05946e-007 -1.62329e-006 7.48304 0.0577885 0.122024 -9.41674e-006 -3.37044e-006 -3.03892 8.02923 -4.95141 0.69769 -66.7369 3.3252 -0.768542 -100.966 4.4887 -17.3643 -2.71693e-006 -1.81963e-006 2.99747e-006 -12.1557 1.59478 0.507857 5.50844e-006 1.99926e-006 3 -8.02889 -4.95147 -0.69769 178.813 -3.15365 0.32003 180 7.01554e-015 178.955 175.342 5.00322 179.802 -2.44103e-006 -4.48678e-006 0.0603095 -18.372 67.7624 19.3587 8.13643 25.207 -3.4691 -178.336 -1.1084 2.19698 4.54188e-006 -4.6773e-006 -1.16784 -3.15718 -12.277 0.461582 -1.84517e-006 -2.56875e-006 -0.170252 19.036 68.4805 -19.9198 -8.12835 25.1246 3.38059 
38.183 98.4962 4.81611 1.16867 -3.68706 3.15472 0.148948 -1.02832 0.193038 0.289594 1.94665 0.370026 0.285501 3.59168 0.365415 -3.61101 20.6437 -1.61684 2.36605 -7.33164 -2.41064 73.1534 -1.12431 -2.19266 96.8526 13.4955 30.1627 -5.84874e-008 -9.05946e-007 -1.62329e-006 7.48306 0.0577819 0.124568 -9.41674e-006 -3.37044e-006 -3.03892 8.02923 -4.95141 0.69769 -66.7225 3.32632 -0.7713 -100.987 4.48532 -17.3745 -2.71693e-006 -1.81963e-006 2.99747e-006 -12.1443 1.58474 0.507273 5.50844e-006 1.99926e-006 3 -8.02889 -4.95147 -0.69769 178.818 -3.14107 0.321791 180 7.01554e-015 178.955 175.342 5.03723 179.801 -2.44103e-006 -4.48678e-006 0.060387 -18.36 67.7477 19.3464 8.1365 25.2082 -3.47003 -178.332 -1.0782 2.18923 4.54188e-006 -4.6773e-006 -1.16787 -3.15754 -12.3348 0.460817 -1.84517e-006 -2.56875e-006 -0.170851 19.0359 68.4805 -19.9199 -8.12947 25.141 3.37008 
